<svg xmlns="http://www.w3.org/2000/svg" viewBox="0 0 473.882 55.94"> <path d="M20.2,38.033a17.9,17.9,0,0,1-8.189-5.1V38.61H8.847V33A19.408,19.408,0,0,1,.775,38.053L0,37.02a14.441,14.441,0,0,0,6.368-5.493H2.353V22.876H8.847V20.837H0v-1.26H8.847v-.745c0-.192-.023-.794-.023-1.25l3.184.021c.074,0,.139.11.139.184a1.435,1.435,0,0,1-.139.4v1.392h8.857v1.26H12.008v2.039h6.545v8.651H14.5c1.032,1.975,2.88,3.614,6.544,5.447ZM8.847,24.1H5.536v2.352H8.847Zm0,3.591H5.536V30.27H8.847Zm3.161-1.24h3.346V24.1H12.008Zm0,3.814h3.346V27.7H12.008Z" transform="translate(55.853 7.642)" fill="currentColor"></path> <path d="M28.305,36.756a11.525,11.525,0,0,0,4.956-5.514l2.98,1.407c.114.059.2.1.2.217s-.061.158-.4.292a17.548,17.548,0,0,1-6.819,4.591Zm9.35-18.068c0-.308-.018-.819-.043-1.158l2.982.062c.082,0,.256,0,.256.183a.827.827,0,0,1-.174.4V20.4H49.6V21.63H28.755V20.4h8.9ZM40.677,36c0,1.943-.65,2.374-2.646,2.374H34.406L34,36.869a9.684,9.684,0,0,0,2.324.269c1.259,0,1.31-.407,1.31-1.273v-5.4H31.061v-6.82H47.3v6.82H40.677Zm-6.543-6.8H44.223V24.877H34.134Zm12.759,8.61a23.966,23.966,0,0,0-4.779-5.288l1.192-.919a24.4,24.4,0,0,1,6.3,4.235Z" transform="translate(49.855 7.653)" fill="currentColor"></path> <path d="M58.223,36.386c5.333-1.032,6.306-4.353,6.123-9.894H59.9c-.384,0-2.067,0-3.585.075V24.993c1.518.041,2.258.064,3.585.064H71.9c1.867,0,2.737-.023,3.583-.064v1.574c-1.316-.075-2.777-.075-3.534-.075H67.8c0,1.15.017,4.311-.764,6.016-1.82,3.983-5.83,4.815-8.186,5.287Zm4.786-15.4c-1.643,0-2.9.044-3.8.065V19.479c.947.044,2.175.065,3.79.065h5.251c1.525,0,2.982-.043,3.728-.065v1.569C70.89,21,69.7,20.982,68.33,20.982Zm10.706.668a17.417,17.417,0,0,0-1.569-3.2l1.1-.519a12.705,12.705,0,0,1,1.99,3.055Zm2.219-.916a11.647,11.647,0,0,0-1.479-2.851l1.122-.556a12.489,12.489,0,0,1,1.929,2.64Z" transform="translate(43.918 7.696)" fill="currentColor"></path> <path d="M87.3,25.243H86.287c-.24,0-2.107.028-2.891.064V23.764c.429.018,2.768.038,2.871.038H87.3V20.937c0-.43,0-1.594-.07-2.337l2.979.21c.477.026.518.041.518.155s-.136.582-.136.673V23.8h4.928v-3.3c0-.128,0-1.163-.017-1.879l2.985.182c.288.026.511.041.511.178s-.11.716-.11.849V23.8h.831c.508,0,1.858,0,2.821-.038v1.543c-.852-.036-1.809-.064-2.673-.064h-.979a20.228,20.228,0,0,1-.65,6.5c-1.709,4.882-5.939,5.61-8.861,6.1l-.714-1.388c2.419-.38,5.514-.947,6.546-5.361a26.436,26.436,0,0,0,.308-5.853H90.594v5.964H87.21c.093-.942.093-4.376.093-4.44ZM101.358,22.4a13.188,13.188,0,0,0-1.839-3.032l1.08-.664a16.75,16.75,0,0,1,2.259,2.82Zm1.481-4.527a14.268,14.268,0,0,1,2.172,2.438l-1.5.906a12.973,12.973,0,0,0-1.765-2.7Z" transform="translate(38.181 7.581)" fill="currentColor"></path> <path d="M109.14,28.4c6.012-1.841,10.52-4.46,14.786-10.759l2.794,1.772c.071.039.433.267.433.375s-.565.473-.682.585a37.59,37.59,0,0,1-4.72,4.263V34.954c0,.377.018,2.751.039,3.043h-3.315c.023-.311.023-2.622.023-3.023V26.558a32.151,32.151,0,0,1-8.818,3.084Z" transform="translate(32.726 7.63)" fill="currentColor"></path> <path d="M135.729,34.422c7.76-.868,12.935-3.531,17.336-10.333l1.136.853a22.644,22.644,0,0,1-4.73,6.711,22.124,22.124,0,0,1-7.98,4.882c-.6.195-3.583,1.1-4.268,1.323Zm7.085-9.59a14.993,14.993,0,0,0-6.035-5.046l.7-1.214a19.213,19.213,0,0,1,7.736,3.612Z" transform="translate(27.091 7.432)" fill="currentColor"></path> <path d="M164.006,36.648c5.339-1.009,6.3-4.375,6.117-9.906h-4.439c-1.388,0-2.529.02-3.587.069V25.236c1.2.064,2.378.088,3.587.088h12c.636,0,2.33,0,3.587-.088v1.575c-.807-.05-2.057-.069-3.549-.069h-4.139c0,4.346-.585,5.626-.766,6.006-1.813,4.01-5.826,4.812-8.151,5.294Zm4.976-15.425c-1.209,0-2.918.046-3.813.085V19.739c2.085.065,3.608.065,3.813.065h5.469c.41,0,1.926,0,3.746-.065v1.569c-.942-.039-2.491-.085-3.658-.085Z" transform="translate(21.504 7.185)" fill="currentColor"></path> <path d="M189.088,28.032a10.977,10.977,0,0,0,5.357-7.123,14,14,0,0,0,.558-2.65l3.267.828c.277.072.382.129.382.206a2.3,2.3,0,0,1-.238.427c-.242.623-.585,1.635-.868,2.222h4.629c2.244,0,3.007-.047,3.542-.095l1.307,1.235c-.922,3.746-1.344,5.557-2.891,7.981-3.587,5.624-9.4,6.5-13.454,6.89l-.456-1.415c3.546-.43,11.669-1.708,13.075-13.158h-6.552a14.726,14.726,0,0,1-6.781,5.915Z" transform="translate(15.785 7.499)" fill="currentColor"></path> <path d="M211.485,35.855a13.751,13.751,0,0,0,8.9-6.163c2.25-3.7,2.463-7.94,2.584-10l3.36.629c.1.018.381.059.381.2,0,.088-.2.514-.217.63-.835,4.052-1.22,5.956-2.293,7.984-3.226,5.983-8.792,7.282-12.063,8.06Z" transform="translate(11.038 7.196)" fill="currentColor"></path> <path d="M239.919,36.315c0,.139.02.787.02.945H236.6c.02-.969.043-2.925.043-3.993V23.584c0-.784,0-1.575-.043-2.874,1.742.044,2.739.091,4.219.091H249.6c2.2,0,2.76-.024,3.571-.07-.048,1.928-.048,2.938-.048,3.412v9.17c0,1.384.013,3.044.048,3.97H249.8c0-.295.021-.679.021-.968Zm-.029-1.394h9.959V22.207H239.89Z" transform="translate(5.717 6.98)" fill="currentColor"></path> <path d="M262.611,24.126a26.619,26.619,0,0,1,6.943,2.057l-1.8,2.9a17.74,17.74,0,0,0-6.053-3.608Zm.329,9.645c10.334-.43,14.595-7.314,16.365-10.226l1.238.738c-4.012,8.944-10.179,11.525-15.741,12.89a4.378,4.378,0,0,1-.559.242c-.095,0-.111-.125-.225-.441Zm2.761-15.5a20.722,20.722,0,0,1,6.148,2.854l-1.98,2.706a17.931,17.931,0,0,0-5.243-4.432Zm9.9.333a13.784,13.784,0,0,1,2.9,2.2l-1.253,1.262a11.617,11.617,0,0,0-2.538-2.6Zm2-1.343a11.526,11.526,0,0,1,2.757,1.865l-1.259,1.25a13.307,13.307,0,0,0-2.4-2.234Z" transform="translate(0.397 7.71)" fill="currentColor"></path> <path d="M287.609,29.673c1.568,0,4.861.018,5.557.018H301.7c1.784,0,3.816,0,5.634-.018V31.6c-1.338-.018-4.121-.018-5.561-.018h-8.539c-3.908,0-4.394,0-5.629.018Z" transform="translate(-5.092 5.08)" fill="currentColor"></path> <path d="M315.03,24.351c1.533-.044,3.43-.136,3.947-.164l1.235-.041v-2.17c0-.477-.047-2.631-.088-3.033l3.07.231c.38.018.38.084.38.151,0,.1-.117.583-.117.7v3.969l5.6-.295c1.025-.046,2.212-.128,3.323-.287l1.23,1.525a3.934,3.934,0,0,0-.406.535,14.707,14.707,0,0,1-6.8,5.944l-.924-1.237a9.211,9.211,0,0,0,4.111-5.093l-6.131.316v8.08c0,1.612.671,2.171,2.588,2.171h2.2a28.64,28.64,0,0,0,4.419-.5V37.2h-7.75c-3.677,0-4.7-1.256-4.7-3.344V25.574l-1.287.054c-.826.021-2.909.152-3.895.27Z" transform="translate(-10.902 7.354)" fill="currentColor"></path> <path d="M341.427,34.422c7.771-.868,12.944-3.531,17.343-10.333l1.14.853a22.771,22.771,0,0,1-4.727,6.711,22.215,22.215,0,0,1-7.987,4.882c-.6.195-3.589,1.1-4.25,1.323Zm7.1-9.59a14.972,14.972,0,0,0-6.031-5.046l.69-1.214a19.264,19.264,0,0,1,7.74,3.612Z" transform="translate(-16.497 7.432)" fill="currentColor"></path> <path d="M367.942,36.385c5.207-.737,7.6-2.282,9.773-4.329a14.988,14.988,0,0,0-4.888-4.476l.85-1.155a17.158,17.158,0,0,1,5.852,3.147,17.561,17.561,0,0,0,2.151-6.391h-6.694a16.653,16.653,0,0,1-6.842,6.165l-.917-1.212a12.276,12.276,0,0,0,5.321-7.419A9.045,9.045,0,0,0,373,18.407l3.239.84c.133.062.472.14.472.275,0,.073-.262.36-.277.45-.255.677-.465,1.3-.691,1.8h4.6c.424,0,3.436-.067,3.785-.113l1.277,1.1c-.868,3.29-1.5,5.648-3.152,8.117-3.778,5.575-10.051,6.522-13.679,6.99Z" transform="translate(-21.963 7.468)" fill="currentColor"></path> <path d="M392.542,29.673c1.58,0,4.87.018,5.56.018h8.538c1.771,0,3.822,0,5.631-.018V31.6c-1.343-.018-4.126-.018-5.555-.018h-8.545c-3.9,0-4.4,0-5.629.018Z" transform="translate(-27.328 5.08)" fill="currentColor"></path> <path d="M439.7,19.415v1.253h-9.01v1.574h6.527v7.864H421.1V22.242h6.55V20.668h-8.958V19.415h8.958v-.363a6.683,6.683,0,0,0-.141-1.5l3.179.046a.334.334,0,0,1,.143.206,3.888,3.888,0,0,1-.143.486v1.125Zm-.054,12.538V33.2h-4.717v2.776c0,2.088-.535,2.4-2.631,2.4h-3.685l-.564-1.436a10.029,10.029,0,0,0,2.555.24c1.174,0,1.261-.09,1.261-1.141V33.2h-8.456a27.736,27.736,0,0,1,3.816,2.935L424.4,38.066a14.919,14.919,0,0,0-2.531-4.3l.791-.563h-3.969V31.953h13.17a9.47,9.47,0,0,0-.138-1.6l3.026.038c.177,0,.339.117.339.249,0,.085-.162.357-.162.452v.857Zm-11.993-8.458h-3.369v2.044h3.369Zm-3.369,5.352h3.369V26.785h-3.369Zm9.891-5.352H430.69v2.044h3.483Zm-3.483,5.352h3.483V26.785H430.69Z" transform="translate(-32.87 7.649)" fill="currentColor"></path> <path d="M456.72,18.434V27.22h-5.986V38.637h-2.953v-20.2Zm-2.866,1.252h-3.12v2.491h3.12Zm-3.12,6.276h3.12V23.419h-3.12Zm16.221-7.528v17.4c0,2.557-1.043,2.692-3.012,2.692h-2.578l-.509-1.464a22.164,22.164,0,0,0,2.3.223c.742,0,.853-.242.853-1.248V27.22h-5.941V18.434Zm-2.945,1.252H460.83v2.491h3.179Zm-3.178,6.276h3.179V23.419h-3.179Z" transform="translate(-39.033 7.462)" fill="currentColor"></path> <path d="M495.521,31.136v1.255h-8.906v3.7c0,1.85-.79,2.379-2.623,2.379h-3.922l-.383-1.433a20.6,20.6,0,0,0,2.484.2c1.036,0,1.26-.144,1.26-1.168v-3.68h-8.787V31.136h8.787V28.688l2.274.18a14.033,14.033,0,0,0,1.828-2.034h-9v-1.24h13.071V27.17a40.9,40.9,0,0,1-4.993,3.046v.921Zm-11.955-9.054a18.355,18.355,0,0,0-1.548-4.057l1.163-.7a20.375,20.375,0,0,1,3.608,3.494l-2.263,1.261h5.112l-1.289-.635a12.7,12.7,0,0,0,1.584-4.078l3.475,1.366a.127.127,0,0,1,.069.115.626.626,0,0,1-.473.471,30.656,30.656,0,0,1-3.2,2.761h5.19V26.4h-3.064V23.314H478.148V26.45h-3.037V22.083h3.246a23.259,23.259,0,0,0-1.962-3.725l1.074-.74a15.2,15.2,0,0,1,4.075,3.2l-1.859,1.261Z" transform="translate(-44.725 7.696)" fill="currentColor"></path> <path d="M510.982,31.564a17.047,17.047,0,0,1-1.861-2.542v9.541h-2.961V30.33A14.613,14.613,0,0,1,503.493,34l-.724-1.138a19.508,19.508,0,0,0,3.29-9.223h-2.815V22.409h2.917V19.544a19.237,19.237,0,0,0-.069-2.014l2.989.062a.328.328,0,0,1,.13.293.9.9,0,0,1-.089.374v4.149h1.954v1.233h-1.933a16.485,16.485,0,0,0,2.845,6.931Zm4.616-5.386a15.366,15.366,0,0,0,1.727,5.318,12.991,12.991,0,0,0,1.349-5.1l3.109.875c.116.018.16.118.16.249s-.16.3-.288.4a16.613,16.613,0,0,1-2.78,5.736,16.7,16.7,0,0,0,5.69,3.811l-.873,1.062a18.193,18.193,0,0,1-6.254-3.364,16.782,16.782,0,0,1-6.882,3.364l-.875-1.036a14.386,14.386,0,0,0,6.143-3.875,13.84,13.84,0,0,1-3.137-6.3Zm-5.061.988a11.572,11.572,0,0,0,3.107-5.092l2.873,1.213c.028.025.073.05.073.085,0,.3-.131.384-.375.515a18.62,18.62,0,0,1-4.669,4.153ZM524.1,20.8v1.226H511.385V20.8h4.37V19.138c0-.206-.018-.786-.064-1.567l3.069.046c.089,0,.151.2.151.283a.628.628,0,0,1-.085.36V20.8Zm-1.618,7.422a28.169,28.169,0,0,0-3.924-4.99l.9-1a26.4,26.4,0,0,1,4.956,3.785Z" transform="translate(-50.685 7.653)" fill="currentColor"></path> <path d="M.849,2.484A8.538,8.538,0,0,1,2.1,3.317a5.7,5.7,0,0,0-.389.564A7.721,7.721,0,0,0,.492,3.015ZM.509,7.368A10.546,10.546,0,0,0,2.073,4.712a1.645,1.645,0,0,0,.455.5A14.356,14.356,0,0,1,1.2,7.585a.524.524,0,0,1,.077.173.1.1,0,0,1-.093.11A.235.235,0,0,1,1.03,7.8ZM1.591.337a6.388,6.388,0,0,1,1.2.863,3.233,3.233,0,0,0-.407.519A5.565,5.565,0,0,0,1.2.837ZM4.936,3.83c.166.078.206.125.206.186s-.048.106-.242.1A24.066,24.066,0,0,1,3.377,6.986c.516-.061.757-.1.958-.135-.1-.623-.151-.857-.21-1.125l.552-.114a18.254,18.254,0,0,1,.4,2.3,1.887,1.887,0,0,0-.6.14c-.007-.116-.017-.267-.065-.667-.757.158-1.144.236-1.847.334-.043.151-.057.225-.158.225-.066,0-.084-.088-.093-.133l-.158-.725c.365-.016.469-.024.577-.032.122-.215.279-.492.82-1.482A11.68,11.68,0,0,0,2.237,4.164l.4-.541c.15.143.251.244.411.409a9.673,9.673,0,0,0,.521-1.5l.607.232c.1.04.143.076.143.135,0,.1-.151.106-.251.106a9.387,9.387,0,0,1-.616,1.465c.059.074.159.192.407.5.41-.882.459-.982.608-1.349Zm.623-2A8.249,8.249,0,0,0,6.507.292l.591.3c.117.06.151.095.151.143,0,.134-.193.11-.267.1a10.3,10.3,0,0,1-.681.988H8.147v.6h-5.6v-.6H4.279a9.832,9.832,0,0,0-.8-1.173L4.055.327a9.963,9.963,0,0,1,.789,1.207,3.609,3.609,0,0,0-.483.291ZM7.8,3.931c.095.042.15.076.15.133,0,.11-.116.11-.267.11A27.627,27.627,0,0,1,6.231,6.851c.266-.023.882-.116,1.134-.148a8.327,8.327,0,0,0-.277-.992l.6-.132a11.742,11.742,0,0,1,.5,2.214,2.264,2.264,0,0,0-.6.15,6.584,6.584,0,0,0-.109-.7c-.756.158-.872.177-1.906.344-.017.089-.048.214-.148.214a.156.156,0,0,1-.136-.125l-.206-.7c.281-.028.382-.034.5-.051.192-.3.217-.34.709-1.231a12.731,12.731,0,0,0-1.234-1.38l.377-.525c.074.076.131.124.281.284a9.671,9.671,0,0,0,.665-1.505l.543.215c.1.041.154.084.154.142,0,.1-.071.107-.241.132-.206.534-.537,1.207-.694,1.507.289.342.378.467.448.557a11.462,11.462,0,0,0,.657-1.431Z" transform="translate(55.749 11.306)" fill="currentColor"></path> <path d="M16.391,1.465c.024.09-.1.116-.21.14v.35h1.832V3.417h-5.7v.37H18.5V5.133h-.616V4.226h-2.52a4.9,4.9,0,0,1,.415.408,1.383,1.383,0,0,0-.408.3,3.257,3.257,0,0,0-.515-.549l.251-.159h-2.8a7.813,7.813,0,0,1-.79,3.8,1.235,1.235,0,0,0-.641-.285,6.792,6.792,0,0,0,.771-3.86V.914h2.932V.349l.789.025c.068,0,.136.023.136.1s-.069.107-.218.138v.3h3.38v.551Zm-2.7,0H12.313v.49h1.382Zm0,.956H12.313v.541h1.382Zm4.759,5.633a9.591,9.591,0,0,1-3.1-.682,8.41,8.41,0,0,1-2.695.692,1.172,1.172,0,0,0-.35-.541,7.3,7.3,0,0,0,2.427-.466,3.263,3.263,0,0,1-.789-.607,5.235,5.235,0,0,1-.857.533,1.14,1.14,0,0,0-.465-.424,4.19,4.19,0,0,0,1.647-1.117.4.4,0,0,1-.368-.456V4.345l.56.04c.066.008.159.015.159.084,0,.042-.069.09-.169.1v.192c0,.226.04.251.3.251h1.092c.215,0,.288-.1.366-.45a1.257,1.257,0,0,0,.526.243c-.2.6-.395.646-.7.646h-.981a.107.107,0,0,1,.058.076c0,.084-.148.092-.266.1-.074.082-.1.114-.15.167h2.263l.26.273a4.6,4.6,0,0,1-1.2.968,8.985,8.985,0,0,0,2.765.432,1.381,1.381,0,0,0-.334.589M13.568,4.792a4.5,4.5,0,0,1-.559.848,1.333,1.333,0,0,0-.521-.291,4.553,4.553,0,0,0,.7-.973l.467.215c.042.018.124.061.124.117,0,.1-.1.093-.209.084m2-3.327H14.517a.051.051,0,0,1,.017.04c0,.076-.124.091-.218.1v.35h1.251Zm0,.956H14.317v.541h1.251ZM14.535,6.257a2.976,2.976,0,0,0,.855.523,3.058,3.058,0,0,0,.808-.523ZM17.38,2.421h-1.2v.541h1.2Zm-.008,3.044a5.811,5.811,0,0,0-.772-.906l.422-.274a7.874,7.874,0,0,1,.8.882,1.23,1.23,0,0,0-.45.3" transform="translate(53.546 11.294)" fill="currentColor"></path> <path d="M25.9,5.855V7.062c0,.9-.424.95-1.748.958a2.117,2.117,0,0,0-.266-.733,6.587,6.587,0,0,0,.682.051c.642,0,.642-.025.642-.523V5.855H21.79v-.6h3.419V4.533l.4.076a3.4,3.4,0,0,0,.974-.8H23.221v-.6h4.225l.267.415A8.667,8.667,0,0,1,25.9,5.074v.183h3.355v.6ZM28.43,3.917V2.5H22.606V3.917h-.676v-2h1.415A7.967,7.967,0,0,0,22.58.772l.556-.326a7.566,7.566,0,0,1,.8,1.173,3.036,3.036,0,0,0-.517.3h3.1A7.539,7.539,0,0,0,27.679.379l.686.268c.048.015.106.05.106.11,0,.107-.143.107-.266.115a10.065,10.065,0,0,1-.832,1.045h1.741v2ZM25.342,1.812a5.765,5.765,0,0,0-.79-1.239l.593-.31A7.4,7.4,0,0,1,25.933,1.5a2.205,2.205,0,0,0-.591.316" transform="translate(51.235 11.312)" fill="currentColor"></path> <path d="M38.9,8.067V7.685H33.421v.382h-.679V.728H39.57V8.067Zm0-6.791H33.421V7.112H38.9ZM38.19,6.811A5.316,5.316,0,0,1,36.444,5.68V6.961h-.564V5.538a6.362,6.362,0,0,1-1.807,1.2,1.144,1.144,0,0,0-.41-.492A6.292,6.292,0,0,0,35.7,5.114H34.389V3.631h3.55V5.1l.39.236c.024.013.077.055.077.088,0,.085-.084.085-.11.085a.633.633,0,0,1-.13-.017c-.234.223-.444.4-.541.482a4.614,4.614,0,0,0,.914.359,1.2,1.2,0,0,0-.35.481M33.756,3.284V2.826H35.87V2.343H34.106V1.883H35.87V1.3l.557.051c.139.016.264.024.264.117s-.15.124-.225.139v.273h1.717v.459H36.467v.483h2.1v.458Zm3.585.773H35v.622h2.337Zm-.9,1.057v.014a5.5,5.5,0,0,0,.789.627,7.21,7.21,0,0,0,.593-.641Z" transform="translate(48.915 11.214)" fill="currentColor"></path> <path d="M47.463,3.162a1.691,1.691,0,0,0-1.716-1.73c-1.348,0-2,1.373-2,2.8,0,1.847.95,2.673,1.989,2.673.472,0,1.6-.185,1.733-1.824h.846A2.612,2.612,0,0,1,45.78,7.63c-2.014,0-2.86-1.655-2.86-3.394s.837-3.527,2.8-3.527a2.5,2.5,0,0,1,2.553,2.453Z" transform="translate(46.758 11.218)" fill="currentColor"></path> <path d="M56.81,4.17c0,1.991-1.176,3.461-2.962,3.461S50.891,6.176,50.891,4.17c0-1.881,1.075-3.461,2.956-3.461,1.9,0,2.962,1.613,2.962,3.461m-5.083,0c0,1.9,1.03,2.739,2.121,2.739,1.006,0,2.13-.742,2.13-2.739,0-1.906-1.041-2.737-2.13-2.737-1.043,0-2.121.783-2.121,2.737" transform="translate(45.069 11.218)" fill="currentColor"></path> <path d="M60.935.938l1.807,5.577,1.8-5.577h1.149V7.5H64.88V1.905L63.065,7.5h-.647L60.61,1.905V7.5h-.825V.938Z" transform="translate(43.184 11.169)" fill="currentColor"></path> <path d="M74.839,2.538C74.049,4.4,73.052,6.773,70,8a2.855,2.855,0,0,0-.548-.543A7.28,7.28,0,0,0,74.016,2.43H71.256a11.421,11.421,0,0,1-2.122,2.386,6.334,6.334,0,0,0-.557-.515A8.914,8.914,0,0,0,71.461.44l.7.3c.072.032.114.059.114.114,0,.1-.122.109-.2.117-.206.418-.307.59-.423.794h2.486a1.255,1.255,0,0,0,.552-.125l.418.389a3.45,3.45,0,0,0-.269.509m-.79-1.2a4.929,4.929,0,0,0-.731-.819L73.735.2a7.423,7.423,0,0,1,.749.834,1.966,1.966,0,0,0-.435.308m1.258-.053A5.125,5.125,0,0,0,74.581.44l.4-.326a8.79,8.79,0,0,1,.757.857,1.82,1.82,0,0,0-.431.317" transform="translate(41.321 11.344)" fill="currentColor"></path> <path d="M80.768,1.509v2.05a4.09,4.09,0,0,1-2.079,3.9A1.928,1.928,0,0,0,78.1,6.93a3.258,3.258,0,0,0,1.914-3.3V1.2l.731.052c.085.008.194.017.194.106s-.085.127-.167.156M82.93,7.154a2.4,2.4,0,0,0-.466.373l-.532-.373c.009-.167.028-.416.028-.649V1.13l.741.031c.088,0,.165.009.165.095s-.077.106-.165.149V6.388a8.817,8.817,0,0,0,2.811-2.613,3.173,3.173,0,0,0,.4.633A11.521,11.521,0,0,1,82.93,7.154" transform="translate(39.304 11.129)" fill="currentColor"></path> <rect id="長方形_29146" data-name="長方形 29146" width="7.082" height="0.733" transform="translate(125.931 15.136)" fill="currentColor"></rect> <path d="M105.527,2.323a8.338,8.338,0,0,1-4.878,5.357,2.067,2.067,0,0,0-.543-.576,7.385,7.385,0,0,0,4.688-4.984H99.225V1.44h5.419a1.483,1.483,0,0,0,.576-.076l.532.466a2.3,2.3,0,0,0-.225.493m.382-.834a.746.746,0,0,1-.742-.75.745.745,0,0,1,1.49,0,.745.745,0,0,1-.747.75m0-1.174a.43.43,0,0,0-.422.424.426.426,0,0,0,.422.434.429.429,0,1,0,0-.858" transform="translate(34.827 11.368)" fill="currentColor"></path> <path d="M124.2,6.085V7.305c0,.909-.428.961-1.768.969a2.2,2.2,0,0,0-.27-.742c.463.042.522.051.69.051.648,0,.648-.024.648-.53V6.085h-3.462V5.478H123.5V4.745l.406.076a3.472,3.472,0,0,0,.985-.809h-3.4V3.405h4.279l.27.421A8.9,8.9,0,0,1,124.2,5.293v.185h3.4v.607Zm2.562-1.963V2.689h-5.9V4.122h-.682V2.1h1.432a8.247,8.247,0,0,0-.775-1.162l.564-.329a7.863,7.863,0,0,1,.808,1.188,2.707,2.707,0,0,0-.521.3h3.133a7.889,7.889,0,0,0,1.18-1.557l.69.269c.051.017.11.051.11.11,0,.108-.143.108-.269.117A10.906,10.906,0,0,1,125.7,2.1h1.761V4.122ZM123.64,1.99a5.987,5.987,0,0,0-.8-1.255l.6-.312a7.344,7.344,0,0,1,.8,1.247,2.323,2.323,0,0,0-.6.32" transform="translate(30.416 11.278)" fill="currentColor"></path> <path d="M133.022,5.548a13.209,13.209,0,0,1-.665-1.382v4.1h-.614V4.452a11.258,11.258,0,0,1-.961,2.149,2,2,0,0,0-.514-.548,8.957,8.957,0,0,0,1.448-3.176h-1.179V2.3h1.206V.545l.614.042c.1.008.2.042.2.11s-.051.093-.2.152V2.3h1.171v.582h-1.171v.236a7.69,7.69,0,0,0,1.2,1.913,1.432,1.432,0,0,0-.53.521m4.937,2.747a7.012,7.012,0,0,1-2.13-1.685,5.893,5.893,0,0,1-2.3,1.609,1.767,1.767,0,0,0-.506-.589,5.547,5.547,0,0,0,2.4-1.549,6.645,6.645,0,0,1-.9-1.82l.6-.235a7.01,7.01,0,0,0,.709,1.516,3.791,3.791,0,0,0,.648-1.6l.623.278c.059.025.177.093.177.159,0,.1-.135.093-.235.093a6.249,6.249,0,0,1-.8,1.626A5.744,5.744,0,0,0,138.4,7.68a3.287,3.287,0,0,0-.437.615m-2.822-5.365a6.907,6.907,0,0,1-1.095,1.719,1.507,1.507,0,0,0-.615-.337,4.584,4.584,0,0,0,1.238-1.9l.556.262c.059.025.159.076.159.152,0,.117-.169.117-.244.11M133.5,2.221V1.607h1.979V.519l.7.05c.12.008.2.059.2.11s-.05.093-.21.142v.785h2.106v.614ZM137.7,4.6c-.195-.337-.389-.623-.532-.826a7.777,7.777,0,0,0-.851-1.036l.565-.329a9.036,9.036,0,0,1,1.39,1.837,1.849,1.849,0,0,0-.572.354" transform="translate(28.249 11.258)" fill="currentColor"></path> <path d="M141.559,2.869A9.951,9.951,0,0,1,143,3.979a4.767,4.767,0,0,0-.428.548,11.106,11.106,0,0,0-1.415-1.11Zm-.4,4.969a14.432,14.432,0,0,0,1.389-2.8,1.474,1.474,0,0,0,.54.43,20.057,20.057,0,0,1-1.18,2.56.354.354,0,0,1,.076.169.09.09,0,0,1-.093.1.262.262,0,0,1-.151-.059Zm1-7.169a10.178,10.178,0,0,1,1.389,1.2,3.812,3.812,0,0,0-.506.521,9.09,9.09,0,0,0-1.355-1.213Zm6.579,1.357v.649h-2.191V4.116h2.485v.648h-2.5c.034.152-.21.177-.3.186-.193.437-.472,1.052-1.088,2.164a25.483,25.483,0,0,0,2.52-.4,11.1,11.1,0,0,0-.835-1.179l.574-.379a14.985,14.985,0,0,1,1.709,2.695,2.29,2.29,0,0,0-.623.4c-.169-.328-.463-.927-.506-.993a38.533,38.533,0,0,1-4.052.673c-.042.092-.066.177-.169.177s-.125-.068-.159-.195l-.151-.648c.269-.017.521-.025.9-.067a23.385,23.385,0,0,0,1.171-2.435h-2.105V4.116h2.418V2.674h-2.04V2.026h2.04V.593l.723.043c.069,0,.186.032.186.1s-.117.127-.194.151V2.026Z" transform="translate(25.942 11.242)" fill="currentColor"></path> <path d="M159.209,8.253a6.784,6.784,0,0,1-2.09-1.635,5.4,5.4,0,0,1-1.23-2.291,5.279,5.279,0,0,1-1.281,2.342,6.619,6.619,0,0,1-2.088,1.575,2.626,2.626,0,0,0-.564-.614,5.171,5.171,0,0,0,3.276-3.521,13.014,13.014,0,0,0,.254-3.547l.732.059c.119.009.212.05.212.11,0,.076-.051.093-.212.144a12.542,12.542,0,0,0,.195,2.981,5.557,5.557,0,0,0,3.319,3.758,2.091,2.091,0,0,0-.522.641" transform="translate(23.653 11.249)" fill="currentColor"></path> <path id="パス_1744" data-name="パス 1744" d="M163.045,7.351v-.7h5.205V2.929h-5.205v-.7h5.973V7.764h-.768V7.351Z" transform="translate(21.303 10.895)" fill="currentColor"></path> <path d="M172.539,5.634A16.064,16.064,0,0,1,177.812,7.5c-.042.119-.21.564-.244.733a14.72,14.72,0,0,0-5.205-1.9Zm.32-4.868a14.328,14.328,0,0,1,4.506,1.213,3.381,3.381,0,0,0-.159.749,13.387,13.387,0,0,0-4.457-1.279Zm.413,2.46a11.2,11.2,0,0,1,3.69,1.179,2.646,2.646,0,0,0-.177.733A9.473,9.473,0,0,0,173.112,3.9Z" transform="translate(19.329 11.206)" fill="currentColor"></path> <path d="M180.415,8.138v-.6h3.3l.564-3.117H181.4V3.8h3.682l-.691,3.74h1.8v.6Z" transform="translate(17.622 10.563)" fill="currentColor"></path> <path d="M188.994,6.6h7.212v.707h-7.212ZM190.03,2.24h5.13v.7h-5.13Z" transform="translate(15.805 10.893)" fill="currentColor"></path> <path d="M204.254,3.344a5.529,5.529,0,0,1-2.864,4.937,4.283,4.283,0,0,0-.589-.523A4.75,4.75,0,0,0,203.5,3.344h-2.081a12.373,12.373,0,0,1-1.582,1.988,5.51,5.51,0,0,0-.623-.455A10.019,10.019,0,0,0,201.9.5l.766.288c.051.016.144.05.144.117,0,.084-.169.118-.254.135a14.5,14.5,0,0,1-.732,1.609h4.641v.7Z" transform="translate(13.64 11.263)" fill="currentColor"></path> <rect id="長方形_29147" data-name="長方形 29147" width="7.169" height="0.741" transform="translate(220.519 15.307)" fill="currentColor"></rect> <path d="M221.438,4.516a9.6,9.6,0,0,0-2.155-1.171l.419-.6a11.54,11.54,0,0,1,2.191,1.137,2.574,2.574,0,0,0-.455.631m-1.01,3.472c-.009.084-.026.2-.136.2-.058,0-.1-.067-.134-.135l-.345-.656a11.947,11.947,0,0,0,6.2-4.76,4.36,4.36,0,0,0,.489.606,13.223,13.223,0,0,1-6.074,4.744m2.013-5.443a8.873,8.873,0,0,0-2.267-1.162L220.6.818a10.307,10.307,0,0,1,2.292,1.1,3.276,3.276,0,0,0-.447.623" transform="translate(9.386 11.195)" fill="currentColor"></path> <path d="M233.535,8.413v-.32H229.55V7.5h3.985V6.012h-3.782V5.406h3.782V3.981h-3.892v-.6h4.541v5.03Z" transform="translate(7.21 10.651)" fill="currentColor"></path> <path d="M239.579,3.318a9.579,9.579,0,0,0-2.393-1.609l.438-.623a11.356,11.356,0,0,1,2.41,1.592,4.61,4.61,0,0,0-.455.641m-1.643,4.548c-.009.144-.024.195-.117.195a.182.182,0,0,1-.135-.1l-.455-.758a9.979,9.979,0,0,0,6.436-4.624,4.931,4.931,0,0,0,.463.657,11.371,11.371,0,0,1-6.191,4.632" transform="translate(5.592 11.138)" fill="currentColor"></path> <path d="M254.055,2.609a11.129,11.129,0,0,1-2.6,2.687,2.474,2.474,0,0,0-.521-.531,6.7,6.7,0,0,0,2.282-2.24H247.08V1.834h6.293a1.424,1.424,0,0,0,.463-.076l.506.464a2.965,2.965,0,0,0-.286.387m-3.176.919a5.187,5.187,0,0,1-2.654,4.9,5.3,5.3,0,0,0-.64-.489c1.895-.985,2.619-2.291,2.5-4.725l.792.068c.085.008.169.042.169.093,0,.084-.093.117-.169.151" transform="translate(3.496 10.996)" fill="currentColor"></path> <rect id="長方形_29148" data-name="長方形 29148" width="7.169" height="0.741" transform="translate(257.7 15.307)" fill="currentColor"></rect> <path d="M271.16,5.8a11.967,11.967,0,0,0-3.117-2.14V8.095h-.758V.807l.765.058c.11.009.162.034.162.1,0,.093-.11.117-.169.127v2.4l.328-.455a13.427,13.427,0,0,1,3.234,2.149,4.005,4.005,0,0,0-.445.614" transform="translate(-0.785 11.197)" fill="currentColor"></path> <g id="グループ_29096" data-name="グループ 29096" transform="translate(0.476 1.032)"> <path id="長方形_29572" data-name="長方形 29572" d="M3.127,0H39a3.127,3.127,0,0,1,3.127,3.127V40.08A3.128,3.128,0,0,1,39,43.208H3.129A3.129,3.129,0,0,1,0,40.079V3.127A3.127,3.127,0,0,1,3.127,0Z" transform="translate(-0.476 -1.032)" fill="#fff"></path> <path id="長方形_29134" data-name="長方形 29134" d="M3.127,0H36.986a3.127,3.127,0,0,1,3.127,3.127V38.016a3.128,3.128,0,0,1-3.128,3.128H3.129A3.129,3.129,0,0,1,0,38.015V3.127A3.127,3.127,0,0,1,3.127,0Z" transform="translate(0.53)" fill="#1a1311"></path> <path id="長方形_29135" data-name="長方形 29135" d="M.859,0H9.683a.857.857,0,0,1,.857.857V9.684a.857.857,0,0,1-.857.857H.857A.857.857,0,0,1,0,9.684V.859A.859.859,0,0,1,.859,0Z" transform="translate(26.723 3.529)" fill="#fff"></path> <path id="長方形_29136" data-name="長方形 29136" d="M.859,0H9.684a.857.857,0,0,1,.857.857V9.684a.857.857,0,0,1-.857.857H.859A.859.859,0,0,1,0,9.682V.859A.859.859,0,0,1,.859,0Z" transform="translate(15.094 3.529)" fill="#fff"></path> <rect id="長方形_29137" data-name="長方形 29137" width="10.541" height="10.541" rx="0.858" transform="translate(3.465 3.529)" fill="#fff"></rect> <path id="長方形_29138" data-name="長方形 29138" d="M.859,0H9.684a.857.857,0,0,1,.857.857V9.684a.857.857,0,0,1-.857.857H.859A.859.859,0,0,1,0,9.682V.859A.859.859,0,0,1,.859,0Z" transform="translate(15.094 15.158)" fill="#dc000c"></path> <path id="パス_1684" data-name="パス 1684" d="M27.011,38.983a.788.788,0,0,1-.787.787H17.255a.787.787,0,0,1-.785-.787V30.014a.783.783,0,0,1,.785-.784h8.968a.784.784,0,0,1,.787.784Z" transform="translate(-1.376 -2.442)" fill="#fff"></path> <rect id="長方形_29139" data-name="長方形 29139" width="10.718" height="10.718" rx="0.872" transform="translate(26.835 14.965)" fill="#5f5e5e"></rect> <path id="長方形_29140" data-name="長方形 29140" d="M.873,0H9.845a.873.873,0,0,1,.873.873V9.846a.872.872,0,0,1-.872.872H.872A.872.872,0,0,1,0,9.846V.873A.873.873,0,0,1,.873,0Z" transform="translate(3.185 14.965)" fill="#5f5e5e"></path> <path id="長方形_29141" data-name="長方形 29141" d="M.874,0H9.846a.872.872,0,0,1,.872.872V9.848a.87.87,0,0,1-.87.87H.872A.872.872,0,0,1,0,9.846V.874A.874.874,0,0,1,.874,0Z" transform="translate(26.835 26.79)" fill="#5f5e5e"></path> <path id="長方形_29142" data-name="長方形 29142" d="M.874,0H9.845a.873.873,0,0,1,.873.873V9.848a.87.87,0,0,1-.87.87H.87A.87.87,0,0,1,0,9.848V.874A.874.874,0,0,1,.874,0Z" transform="translate(3.185 26.79)" fill="#5f5e5e"></path> <g id="グループ_29600" data-name="グループ 29600"> <path id="パス_1685" data-name="パス 1685" d="M7.391,50.934v1.222H4.809v6.836H2.6V52.156H0V50.934Z" transform="translate(0 -4.255)" fill="currentColor"></path> <path id="パス_1686" data-name="パス 1686" d="M14.625,50.934v1.249H10.991v2.029h3.377v1.193H10.991v2.3h3.686v1.286h-5.9V50.934Z" transform="translate(-0.734 -4.255)" fill="currentColor"></path> <path id="パス_1687" data-name="パス 1687" d="M22.277,52.364a5.367,5.367,0,0,0-1.712-.328,2.55,2.55,0,0,0-2.633,2.89c0,2.234,1.328,2.958,2.548,2.958a4.563,4.563,0,0,0,1.8-.453l.466,1.152a6.766,6.766,0,0,1-2.71.521c-2.932,0-4.473-1.9-4.473-4.114,0-2.383,1.743-4.174,4.679-4.174a7.73,7.73,0,0,1,2.463.393Z" transform="translate(-1.301 -4.245)" fill="currentColor"></path> <path id="パス_1688" data-name="パス 1688" d="M26.24,50.934V54.2h3.376V50.934h2.21v8.058h-2.21V55.419H26.24v3.573H24.032V50.934Z" transform="translate(-2.008 -4.255)" fill="currentColor"></path> <path id="パス_1689" data-name="パス 1689" d="M43.3,57.489a5.041,5.041,0,0,1-2.282.6,3.022,3.022,0,0,1-3.268-3.066,3.074,3.074,0,0,1,3.221-3.091,5,5,0,0,1,2.329.6V51.352a6.433,6.433,0,0,0-2.317-.483,4.208,4.208,0,0,0-4.429,4.262,4.128,4.128,0,0,0,4.359,4.027A5.929,5.929,0,0,0,43.3,58.7Z" transform="translate(-3.053 -4.25)" fill="currentColor"></path> <path id="長方形_29143" data-name="長方形 29143" d="M.12,0H1.356a.12.12,0,0,1,.12.12V1.356a.121.121,0,0,1-.121.121H.12A.12.12,0,0,1,0,1.357V.12A.12.12,0,0,1,.12,0Z" transform="translate(31.4 53.293)" fill="currentColor"></path> <path id="長方形_29144" data-name="長方形 29144" d="M.121,0H1.357a.119.119,0,0,1,.119.119V1.356a.121.121,0,0,1-.121.121H.121A.121.121,0,0,1,0,1.356V.121A.121.121,0,0,1,.121,0Z" transform="translate(41.648 53.293)" fill="currentColor"></path> </g> </g> </svg>